<mxfile host="app.diagrams.net" modified="2022-04-29T08:07:08.876Z" agent="5.0 (Windows NT 10.0; Win64; x64) AppleWebKit/537.36 (KHTML, like Gecko) Chrome/100.0.4896.127 Safari/537.36" etag="jNPMxduun21yiC58lsK3" version="17.4.6" type="github">
  <diagram id="1sln18OSicmYsX-5lCVv" name="block diagram">
    <mxGraphModel dx="782" dy="475" grid="1" gridSize="10" guides="1" tooltips="1" connect="1" arrows="1" fold="1" page="1" pageScale="1" pageWidth="850" pageHeight="1100" math="0" shadow="0">
      <root>
        <mxCell id="0" />
        <mxCell id="1" parent="0" />
        <mxCell id="FGxO0sSwwNfMIU5HJwCk-1" value="" style="shape=cylinder3;whiteSpace=wrap;html=1;boundedLbl=1;backgroundOutline=1;size=15;" parent="1" vertex="1">
          <mxGeometry x="570" y="330" width="60" height="80" as="geometry" />
        </mxCell>
        <mxCell id="FGxO0sSwwNfMIU5HJwCk-2" value="" style="rounded=0;whiteSpace=wrap;html=1;" parent="1" vertex="1">
          <mxGeometry x="120" y="130" width="230" height="120" as="geometry" />
        </mxCell>
        <mxCell id="FGxO0sSwwNfMIU5HJwCk-3" value="" style="ellipse;whiteSpace=wrap;html=1;" parent="1" vertex="1">
          <mxGeometry x="560" y="150" width="120" height="80" as="geometry" />
        </mxCell>
        <mxCell id="FGxO0sSwwNfMIU5HJwCk-5" value="" style="endArrow=classic;html=1;rounded=0;" parent="1" edge="1">
          <mxGeometry relative="1" as="geometry">
            <mxPoint x="380" y="170" as="sourcePoint" />
            <mxPoint x="540" y="170" as="targetPoint" />
          </mxGeometry>
        </mxCell>
        <mxCell id="FGxO0sSwwNfMIU5HJwCk-6" value="Label" style="edgeLabel;resizable=0;html=1;align=center;verticalAlign=middle;" parent="FGxO0sSwwNfMIU5HJwCk-5" connectable="0" vertex="1">
          <mxGeometry relative="1" as="geometry" />
        </mxCell>
        <mxCell id="FGxO0sSwwNfMIU5HJwCk-7" value="image" style="edgeLabel;resizable=0;html=1;align=left;verticalAlign=bottom;" parent="FGxO0sSwwNfMIU5HJwCk-5" connectable="0" vertex="1">
          <mxGeometry x="-1" relative="1" as="geometry" />
        </mxCell>
        <mxCell id="FGxO0sSwwNfMIU5HJwCk-9" value="" style="endArrow=classic;html=1;rounded=0;" parent="1" edge="1">
          <mxGeometry width="50" height="50" relative="1" as="geometry">
            <mxPoint x="550" y="220" as="sourcePoint" />
            <mxPoint x="385" y="220" as="targetPoint" />
          </mxGeometry>
        </mxCell>
        <mxCell id="FGxO0sSwwNfMIU5HJwCk-10" value="emp id&lt;br&gt;" style="edgeLabel;html=1;align=center;verticalAlign=middle;resizable=0;points=[];" parent="FGxO0sSwwNfMIU5HJwCk-9" vertex="1" connectable="0">
          <mxGeometry x="0.2525" y="2" relative="1" as="geometry">
            <mxPoint as="offset" />
          </mxGeometry>
        </mxCell>
        <mxCell id="FGxO0sSwwNfMIU5HJwCk-11" value="raspberry Pi" style="text;html=1;strokeColor=none;fillColor=none;align=center;verticalAlign=middle;whiteSpace=wrap;rounded=0;" parent="1" vertex="1">
          <mxGeometry x="190" y="110" width="60" height="70" as="geometry" />
        </mxCell>
        <mxCell id="FGxO0sSwwNfMIU5HJwCk-12" value="detect face and send to server to check id" style="text;html=1;strokeColor=none;fillColor=none;align=center;verticalAlign=middle;whiteSpace=wrap;rounded=0;" parent="1" vertex="1">
          <mxGeometry x="150" y="150" width="150" height="50" as="geometry" />
        </mxCell>
        <mxCell id="FGxO0sSwwNfMIU5HJwCk-13" value="process image and return emp id" style="text;html=1;strokeColor=none;fillColor=none;align=center;verticalAlign=middle;whiteSpace=wrap;rounded=0;" parent="1" vertex="1">
          <mxGeometry x="650" y="90" width="60" height="30" as="geometry" />
        </mxCell>
        <mxCell id="FGxO0sSwwNfMIU5HJwCk-14" value="" style="shape=flexArrow;endArrow=classic;startArrow=classic;html=1;rounded=0;entryX=0.317;entryY=1.013;entryDx=0;entryDy=0;entryPerimeter=0;exitX=0.5;exitY=0;exitDx=0;exitDy=0;exitPerimeter=0;" parent="1" source="FGxO0sSwwNfMIU5HJwCk-1" target="FGxO0sSwwNfMIU5HJwCk-3" edge="1">
          <mxGeometry width="100" height="100" relative="1" as="geometry">
            <mxPoint x="550" y="330" as="sourcePoint" />
            <mxPoint x="650" y="230" as="targetPoint" />
          </mxGeometry>
        </mxCell>
        <mxCell id="sVZ6unLLLjuDd64JXyeE-1" value="" style="shape=process;whiteSpace=wrap;html=1;backgroundOutline=1;" vertex="1" parent="1">
          <mxGeometry x="100" y="320" width="270" height="130" as="geometry" />
        </mxCell>
        <mxCell id="sVZ6unLLLjuDd64JXyeE-4" value="Text" style="text;html=1;strokeColor=none;fillColor=none;align=center;verticalAlign=middle;whiteSpace=wrap;rounded=0;" vertex="1" parent="1">
          <mxGeometry x="370" y="430" width="60" height="30" as="geometry" />
        </mxCell>
        <mxCell id="sVZ6unLLLjuDd64JXyeE-5" value="Monitor/ Rasberry pi display&lt;br&gt;" style="text;html=1;strokeColor=none;fillColor=none;align=center;verticalAlign=middle;whiteSpace=wrap;rounded=0;" vertex="1" parent="1">
          <mxGeometry x="190" y="330" width="60" height="30" as="geometry" />
        </mxCell>
        <mxCell id="sVZ6unLLLjuDd64JXyeE-6" value="" style="endArrow=classic;html=1;rounded=0;exitX=0.678;exitY=1.025;exitDx=0;exitDy=0;exitPerimeter=0;entryX=0.669;entryY=-0.013;entryDx=0;entryDy=0;entryPerimeter=0;" edge="1" parent="1" source="FGxO0sSwwNfMIU5HJwCk-2" target="sVZ6unLLLjuDd64JXyeE-1">
          <mxGeometry width="50" height="50" relative="1" as="geometry">
            <mxPoint x="465" y="280" as="sourcePoint" />
            <mxPoint x="300" y="280" as="targetPoint" />
          </mxGeometry>
        </mxCell>
        <mxCell id="sVZ6unLLLjuDd64JXyeE-7" value="emp id&lt;br&gt;" style="edgeLabel;html=1;align=center;verticalAlign=middle;resizable=0;points=[];" vertex="1" connectable="0" parent="sVZ6unLLLjuDd64JXyeE-6">
          <mxGeometry x="0.2525" y="2" relative="1" as="geometry">
            <mxPoint as="offset" />
          </mxGeometry>
        </mxCell>
        <mxCell id="sVZ6unLLLjuDd64JXyeE-9" value="" style="shape=flexArrow;endArrow=classic;startArrow=classic;html=1;rounded=0;entryX=0.5;entryY=1;entryDx=0;entryDy=0;exitX=0.5;exitY=0;exitDx=0;exitDy=0;" edge="1" parent="1" source="sVZ6unLLLjuDd64JXyeE-1" target="FGxO0sSwwNfMIU5HJwCk-2">
          <mxGeometry width="100" height="100" relative="1" as="geometry">
            <mxPoint x="190" y="380" as="sourcePoint" />
            <mxPoint x="290" y="280" as="targetPoint" />
          </mxGeometry>
        </mxCell>
      </root>
    </mxGraphModel>
  </diagram>
</mxfile>
